<svg width="56" height="56" viewBox="0 0 56 56" fill="none" xmlns="http://www.w3.org/2000/svg">
<g clip-path="url(#clip0_4_1101)">
<mask id="mask0_4_1101" style="mask-type:luminance" maskUnits="userSpaceOnUse" x="0" y="0" width="56" height="56">
<path d="M56 0H0V56H56V0Z" fill="white"/>
</mask>
<g mask="url(#mask0_4_1101)">
<path d="M44.8934 13.0213H43.96L36.0734 5.13462C35.4434 4.50462 34.4167 4.50462 33.7634 5.13462C33.1334 5.76462 33.1334 6.79128 33.7634 7.44462L39.34 13.0213H16.66L22.2367 7.44462C22.8667 6.81462 22.8667 5.78795 22.2367 5.13462C21.6067 4.50462 20.58 4.50462 19.9267 5.13462L12.0634 13.0213H11.13C9.03002 13.0213 4.66669 13.0213 4.66669 18.9946C4.66669 21.2579 5.13335 22.7513 6.11335 23.7312C6.67335 24.3145 7.35002 24.6178 8.07335 24.7812C8.75002 24.9445 9.47335 24.9678 10.1734 24.9678H45.8267C46.55 24.9678 47.2267 24.9212 47.88 24.7812C49.84 24.3145 51.3334 22.9146 51.3334 18.9946C51.3334 13.0213 46.97 13.0213 44.8934 13.0213Z" fill="#080B03"/>
<path d="M44.4498 28H11.3631C9.91646 28 8.81979 29.2833 9.05313 30.7067L11.0131 42.7C11.6665 46.7133 13.4165 51.3333 21.1865 51.3333H34.2764C42.1398 51.3333 43.5398 47.39 44.3798 42.98L46.7364 30.7767C47.0164 29.33 45.9198 28 44.4498 28ZM24.7564 43.05C24.7564 43.96 24.0331 44.6833 23.1465 44.6833C22.2365 44.6833 21.5131 43.96 21.5131 43.05V35.35C21.5131 34.4633 22.2365 33.7167 23.1465 33.7167C24.0331 33.7167 24.7564 34.4633 24.7564 35.35V43.05ZM34.7431 43.05C34.7431 43.96 34.0198 44.6833 33.1098 44.6833C32.2231 44.6833 31.4764 43.96 31.4764 43.05V35.35C31.4764 34.4633 32.2231 33.7167 33.1098 33.7167C34.0198 33.7167 34.7431 34.4633 34.7431 35.35V43.05Z" fill="#080B03"/>
</g>
</g>
<defs>
<clipPath id="clip0_4_1101">
<rect width="56" height="56" fill="white"/>
</clipPath>
</defs>
</svg>
