<svg width="56" height="56" viewBox="0 0 56 56" fill="none" xmlns="http://www.w3.org/2000/svg">
<path d="M6.66588 30.3336C5.56137 30.3336 4.66597 29.4382 4.6659 28.3337L4.66585 27.6673C4.66577 26.5626 5.56123 25.6671 6.66585 25.6671H42.4001L34.5984 17.8652C33.8173 17.0842 33.8173 15.8179 34.5984 15.0368L35.0698 14.5654C35.8508 13.7844 37.1171 13.7844 37.8982 14.5654L49.9191 26.5862C50.7001 27.3673 50.7001 28.6336 49.9191 29.4147L37.8982 41.4355C37.1172 42.2166 35.8508 42.2166 35.0698 41.4355L34.5983 40.964C33.8173 40.1829 33.8173 38.9166 34.5984 38.1356L42.4004 30.3338L6.66588 30.3336Z" fill="black"/>
</svg>
