<svg width="56" height="56" viewBox="0 0 56 56" fill="none" xmlns="http://www.w3.org/2000/svg">
<path d="M49.3341 30.3336C50.4386 30.3336 51.334 29.4382 51.3341 28.3337L51.3341 27.6673C51.3342 26.5626 50.4388 25.6671 49.3341 25.6671H13.5999L21.4016 17.8652C22.1827 17.0842 22.1827 15.8179 21.4016 15.0368L20.9302 14.5654C20.1492 13.7844 18.8829 13.7844 18.1018 14.5654L6.08091 26.5862C5.29986 27.3673 5.29985 28.6336 6.0809 29.4147L18.1018 41.4355C18.8828 42.2166 20.1492 42.2166 20.9302 41.4355L21.4017 40.964C22.1827 40.1829 22.1827 38.9166 21.4016 38.1356L13.5996 30.3338L49.3341 30.3336Z" fill="black"/>
</svg>
