<svg id="icons" height="512" viewBox="0 0 340 340" width="512" xmlns="http://www.w3.org/2000/svg"><path d="m194.144 102.917s-3.517 10.237-3.752 31.133a60.2 60.2 0 0 1 -3.566 19.762c-6.724 18.623-24.737 51.7-69.008 58.388 0 0-47.391 4.827-81.532-23.041a5.435 5.435 0 0 0 -8.414 6.43c9.915 22.3 34.506 53.944 94.652 58.079 0 0 131.169 9.411 137.934-116.464v-44.741l-30.881-24.079s-31.162 19.951-35.433 34.533z" fill="#b73d49"/><path d="m225.834 10.143h5.717a9.571 9.571 0 0 1 8.824 5.882c2.553 6.078 5.633 17.151 5.073 34.518a20.973 20.973 0 0 0 6.617 16.128 32.8 32.8 0 0 1 10.475 19.059s-11.935 18.689-33.257 20.887c0 0-4.165-9.211.012-25.478 0 0-6.815 11.211-24.62 14.289-4.136.714-7.62 3.553-10.531 7.489-3.32-14.039 2.883-36.5 31.719-42.549 0 0 6.762-29.083-2.608-45.957a2.9 2.9 0 0 1 2.579-4.268z" fill="#719b56"/><path d="m238.063 121.307c-16.843 46.293-24.563 141.343-85.405 158.673-73.432 15.812-81.065-19.27-129.377-.514-6.138 3.177-4.457 12.378 2.392 13.3 2.639.355 5.5.8 8.487 1.364 0 0 14.38-2.149 24.629 1.516 30.749 10.993 90.06 35.332 138.006 14.468 88.665-38.584 116.779-198.038 116.779-198.038-25.119-21.988-50.283-22.24-75.511 9.231z" fill="#f7616c"/><path d="m303.787 85.515s-41.072-9.038-62.1 25.782c0 0-1.437 3.672-3.618 10.01a42.392 42.392 0 0 0 26.887-11s7.549 12.741 4.376 24.191a2.033 2.033 0 0 0 2.1 2.59c4.8-.356 14.361-2.007 21.927-9.234a4.187 4.187 0 0 1 7.045 3.553c-5.121 40.305-27.142 138.472-121.146 176.822-29.71 12.095-63.6 10.792-91.413-6.178-19.611-12.164-40.607-10.736-53.677-7.92 11.33 2.132 24.524 5.921 34.739 12.676 31.393 20.759 66.243 25.847 102.907 19.881 47.229-7.685 102.521-57.834 133.242-146.71 3.984-10.842 10.88-31.381 12.187-51.548v-19.81z" fill="#b73d49"/><path d="m241.682 111.3s16.184-1.922 26.792-12.624a1.84 1.84 0 0 1 3.152 1.219 34.067 34.067 0 0 0 3.084 11.988 30.722 30.722 0 0 1 2.366 13.829 1.416 1.416 0 0 0 1.918 1.406c4.357-1.65 14.321-6.658 17.934-18.861a4.114 4.114 0 0 1 6.613-2.039 41.4 41.4 0 0 1 13.693 22.217s14.747-30.825-17.953-54.624a115.106 115.106 0 0 0 .643-53.364 9.206 9.206 0 0 0 -8.994-7.063h-3.585a2.881 2.881 0 0 0 -2.865 3.239c2.417 20.058 3.7 43.741-18.693 56.5-9.736 5.502-23.827 16.294-24.105 38.177z" fill="#a9db89"/><path d="m237.077 176.739c-2.139 8.741-6.574 24.98-12.722 37.814-2.913 6.414 6.194 11.173 9.8 5.118 4.091-7.2 12.545-23.255 16.427-39.124a5.554 5.554 0 0 0 -3.279-6.476l-2.763-1.128a5.529 5.529 0 0 0 -7.463 3.796z" fill="#ffe9e9"/><path d="m246.805 159.972 3.521.96c5.782 1.311 6.479-5.021 7.781-9.2a4.9 4.9 0 0 0 -3.48-6.035l-3.671-.958a4.887 4.887 0 0 0 -5.972 3.526c-.417 1.638-.941 3.556-1.553 5.522a4.9 4.9 0 0 0 3.374 6.185z" fill="#ffe9e9"/><path d="m303.218 72.439a119.513 119.513 0 0 0 .082-52.749 12.61 12.61 0 0 0 -12.37-9.771h-6.905a3.485 3.485 0 0 0 -3.416 4.027c2.071 17.814 6.9 44.779-19.633 58.027-4.759-7.762-12.525-10.585-12.068-21.319.576-17.85-2.586-29.413-5.34-35.969-4.609-10.275-14.262-7.7-23.286-8a3.486 3.486 0 0 0 -2.608 5.739c10.48 12.006 6.65 37.57 5.243 45.063-27.628 6.752-35.809 29.3-32.347 45.275-.889 3.071-3.439 13.386-3.641 31.253a56.581 56.581 0 0 1 -3.359 18.625c-6.575 18.21-23.911 49.7-66.174 56.126-2.1.187-46.945 3.814-78.921-22.286-7.075-5.986-17.691 2.072-13.767 10.52 29.221 60.751 100.116 72.856 166.292 48.546-10.632 15.59-23.7 27.244-39.172 31.074-39.42 9.759-74.361-1.8-74.772-1.934-1.316-.418-32.512-10.12-55.365 1.706-9.088 4.5-6.576 18.66 3.523 19.8 12.228 1.642 29.4 5.318 41.776 13.5 128.6 79.012 236.629-54.527 253.619-180.347 1.835-4.434 12.402-33.728-17.391-56.906zm-94.018-1.212a46.788 46.788 0 0 1 17.344-7.464 3.465 3.465 0 0 0 2.693-2.611c.309-1.33 6.719-29.628-2.493-47.546 3.964.022 8.56-.763 10.44 3.76 2.487 5.921 5.339 16.463 4.8 33.065a24.432 24.432 0 0 0 7.728 18.783 32 32 0 0 1 5.62 6.805c-8.224 6.66-13.487 14.822-15.78 24.384a37.6 37.6 0 0 1 -7.831 2.37c-.8-3.5-1.674-10.653.924-20.773 1.009-3.773-4.313-6.023-6.312-2.659-.06.1-6.183 9.9-22.25 12.675a16.927 16.927 0 0 0 -7.243 3.2 29.078 29.078 0 0 1 12.36-23.989zm-86.438 178.987c-56.962-3.914-81.323-32.632-91.727-56.032a1.973 1.973 0 0 1 3.061-2.341c34.853 28.448 82.081 24.006 84.073 23.8 45.872-6.789 64.846-40.974 71.913-60.657a63.475 63.475 0 0 0 3.772-20.9c.2-17.423 2.746-27.265 3.41-29.541 2.544-3.3 5.233-5.23 8-5.709a44.834 44.834 0 0 0 18.857-7.7c-.776 10.567 1.86 16.581 2.006 16.905 1.75 4 8.975.889 12.222.2-.054.771-.082 1.554-.1 2.341a458.717 458.717 0 0 0 -18.094 61.942c-4.548 21.158-12.128 43.716-22.669 62.517-35.507 17.715-74.327 15.203-74.724 15.175zm48.487 73.06c-37.9 6.167-71.7-.343-100.441-19.352-13.47-8.907-31.729-12.85-44.674-14.589a3.576 3.576 0 0 1 -3.125-3.016 3.451 3.451 0 0 1 1.863-3.775c20.281-10.495 49.79-1.351 50.019-1.278 137.264 35.149 138.655-75.3 169.32-166.868 4.558-.85 15.507-3.563 24.3-11.04a41.753 41.753 0 0 0 3.019 9.9 27.685 27.685 0 0 1 1.934 14.166 3.462 3.462 0 0 0 4.261 3.738 32.791 32.791 0 0 0 22.791-22.94 38.486 38.486 0 0 1 13.2 20.421c-11.616 99.016-88.727 190.159-142.467 194.633zm145.518-206.064a46.1 46.1 0 0 0 -17.032-17.972 3.462 3.462 0 0 0 -5.1 2.7 25.241 25.241 0 0 1 -14.072 20.724 33.135 33.135 0 0 0 -2.679-12.156c-4.517-10.425-2.231-15.314-2.207-15.363l-.05.093c-1.52-.823-4.488-2.621-5.921-3.587-6.282 9.8-18.066 13.867-24.313 15.395 6.861-43.495 51.937-19.545 42.6-90.2 3.821-.209 7.39.148 8.557 4.407a112.7 112.7 0 0 1 -.594 51.57 3.464 3.464 0 0 0 1.281 3.787c19.278 14.025 20.93 30.422 19.53 40.602z" fill="#2b2b2b"/></svg>