<svg width="512" height="512" viewBox="0 0 512 512" fill="none" xmlns="http://www.w3.org/2000/svg">
<path d="M426.964 236.435C418.369 297.94 381.358 354.888 328.635 387.712C275.912 420.539 208.477 428.627 149.489 409.198C174.955 324.498 225.558 247.531 293.229 190.576C245.136 214.832 207.246 256.037 178.755 301.747C150.264 347.457 130.365 397.895 110.625 448.007C91.8844 445.082 83.0742 432.834 83.0742 432.834C83.942 425.068 98.6165 394.247 113.495 365.067C80.7714 318.734 103.962 248.734 146.201 210.118C178.758 180.351 233.656 163.858 274.09 146.217C314.524 128.579 355.688 104.189 373.861 63.9931C415.571 110.015 435.556 174.926 426.964 236.435Z" fill="#5FA53A"/>
</svg>
