<svg width="56" height="56" viewBox="0 0 56 56" fill="none" xmlns="http://www.w3.org/2000/svg">
<g clip-path="url(#clip0_4_1089)">
<mask id="mask0_4_1089" style="mask-type:luminance" maskUnits="userSpaceOnUse" x="0" y="0" width="56" height="56">
<path d="M56 0H0V56H56V0Z" fill="white"/>
</mask>
<g mask="url(#mask0_4_1089)">
<path d="M46.5734 20.9076C45.01 19.1809 42.6534 18.1776 39.3867 17.8276V16.0542C39.3867 12.8576 38.0334 9.77758 35.6534 7.63091C33.25 5.43758 30.1234 4.41091 26.88 4.71424C21.3033 5.25091 16.6133 10.6409 16.6133 16.4742V17.8276C13.3467 18.1776 10.99 19.1809 9.42666 20.9076C7.16333 23.4276 7.23333 26.7876 7.49 29.1209L9.12333 42.1176C9.61333 46.6676 11.4567 51.3343 21.49 51.3343H34.51C44.5434 51.3343 46.3867 46.6676 46.8767 42.1409L48.51 29.0976C48.7667 26.7876 48.8134 23.4276 46.5734 20.9076ZM27.2067 7.95758C29.54 7.74758 31.7567 8.47091 33.4834 10.0342C35.1867 11.5742 36.1434 13.7676 36.1434 16.0542V17.6876H19.8567V16.4742C19.8567 12.3209 23.2867 8.33091 27.2067 7.95758ZM19.6467 30.6843H19.6233C18.34 30.6843 17.29 29.6343 17.29 28.3509C17.29 27.0676 18.34 26.0176 19.6233 26.0176C20.93 26.0176 21.98 27.0676 21.98 28.3509C21.98 29.6343 20.93 30.6843 19.6467 30.6843ZM35.98 30.6843H35.9567C34.6734 30.6843 33.6234 29.6343 33.6234 28.3509C33.6234 27.0676 34.6734 26.0176 35.9567 26.0176C37.2634 26.0176 38.3134 27.0676 38.3134 28.3509C38.3134 29.6343 37.2634 30.6843 35.98 30.6843Z" fill="#020202"/>
</g>
</g>
<defs>
<clipPath id="clip0_4_1089">
<rect width="56" height="56" fill="white"/>
</clipPath>
</defs>
</svg>
