<svg id="Capa_1" enable-background="new 0 0 510 510" height="512" viewBox="0 0 510 510" width="512" xmlns="http://www.w3.org/2000/svg" xmlns:xlink="http://www.w3.org/1999/xlink"><linearGradient id="SVGID_1_" gradientUnits="userSpaceOnUse" x1="122.569" x2="403.725" y1="350.396" y2="350.396"><stop offset="0" stop-color="#f89580"/><stop offset="1" stop-color="#c4573a"/></linearGradient><linearGradient id="lg1"><stop offset="0" stop-color="#c4573a" stop-opacity="0"/><stop offset=".241" stop-color="#bf5539" stop-opacity=".241"/><stop offset=".5239" stop-color="#b15036" stop-opacity=".524"/><stop offset=".8268" stop-color="#994631" stop-opacity=".827"/><stop offset="1" stop-color="#883f2e"/></linearGradient><linearGradient id="SVGID_00000132080727799866894720000010674399394498102413_" gradientUnits="userSpaceOnUse" x1="262.087" x2="291.294" xlink:href="#lg1" y1="327.318" y2="454.656"/><linearGradient id="SVGID_00000011712370271943283360000016811952017429899923_" gradientUnits="userSpaceOnUse" x1="295.468" x2="459.958" xlink:href="#lg1" y1="350.396" y2="350.396"/><linearGradient id="lg2"><stop offset="0" stop-color="#fffaf8"/><stop offset="1" stop-color="#ffdfcf"/></linearGradient><linearGradient id="SVGID_00000129884972811561109470000013780822814713618584_" gradientUnits="userSpaceOnUse" x1="96.857" x2="357.946" xlink:href="#lg2" y1="5.779" y2="403.544"/><linearGradient id="lg3"><stop offset="0" stop-color="#ffa78f" stop-opacity="0"/><stop offset=".8981" stop-color="#ffa78f" stop-opacity=".898"/><stop offset="1" stop-color="#ffa78f"/></linearGradient><linearGradient id="SVGID_00000085236068549366827070000015095752798356329641_" gradientUnits="userSpaceOnUse" x1="254.999" x2="254.999" xlink:href="#lg3" y1="349.672" y2="439.626"/><linearGradient id="SVGID_00000142861573795585993280000011814311305345118653_" gradientUnits="userSpaceOnUse" x1="289.678" x2="321.221" xlink:href="#lg3" y1="318.104" y2="381.189"/><linearGradient id="SVGID_00000150070144785436140150000007282335638887208884_" gradientUnits="userSpaceOnUse" x1="400.61" x2="495.237" xlink:href="#lg3" y1="192.241" y2="192.241"/><linearGradient id="SVGID_00000111171124435804685620000005700633897766006421_" gradientUnits="userSpaceOnUse" x1="105.13" x2="418.786" y1="96.032" y2="402.679"><stop offset="0" stop-color="#fe646f"/><stop offset="1" stop-color="#c41926"/></linearGradient><linearGradient id="lg4"><stop offset="0" stop-color="#a72b2b" stop-opacity="0"/><stop offset=".1759" stop-color="#9d2a28" stop-opacity=".176"/><stop offset=".484" stop-color="#80271e" stop-opacity=".484"/><stop offset=".8851" stop-color="#512210" stop-opacity=".885"/><stop offset="1" stop-color="#42210b"/></linearGradient><linearGradient id="SVGID_00000129201193921578332520000005176317535490130831_" gradientUnits="userSpaceOnUse" x1="56.405" x2="727.886" xlink:href="#lg4" y1="151.938" y2="569.858"/><linearGradient id="SVGID_00000019649123063086398530000010349636965098823069_" gradientUnits="userSpaceOnUse" x1="210.518" x2="843.703" xlink:href="#lg4" y1="109.209" y2="503.295"/><linearGradient id="SVGID_00000052101578373719752440000003145395769962607009_" gradientUnits="userSpaceOnUse" x1="134.544" x2="695.543" xlink:href="#lg4" y1="15.509" y2="364.667"/><linearGradient id="SVGID_00000023964911304652464190000002421462509255893138_" gradientUnits="userSpaceOnUse" x1="139.687" x2="355.051" xlink:href="#lg4" y1="128.302" y2="262.342"/><linearGradient id="SVGID_00000146497230963918402280000009653435271233043082_" gradientUnits="userSpaceOnUse" x1="146.735" x2="182.561" xlink:href="#lg2" y1="268.463" y2="318.308"/><linearGradient id="SVGID_00000145059012107619588580000016452096479301396904_" gradientUnits="userSpaceOnUse" x1="165.35" x2="165.35" xlink:href="#lg3" y1="292.428" y2="339.164"/><linearGradient id="SVGID_00000127025896216098035060000006593555121962257562_" gradientUnits="userSpaceOnUse" x1="163.629" x2="197.906" xlink:href="#lg3" y1="292.646" y2="326.923"/><g><path d="m14.602 319.882v70.094h.028c.219 17.016 3.991 34.105 11.737 50.265 30.118 62.833 108.653 87.827 175.413 55.826 11.894-5.701 22.611-12.826 32.023-21.043 26.762-23.362 60.397-37.616 95.753-41.066 70.182-6.848 132.234-50.737 156.028-118.342 6.755-19.192 9.906-38.826 9.806-58.232l.006-.002v-66.59z" fill="url(#SVGID_1_)"/><path d="m14.602 319.882v70.094h.028c.219 17.016 3.991 34.105 11.737 50.265 30.118 62.833 108.653 87.827 175.413 55.826 11.894-5.701 22.611-12.826 32.023-21.043 26.762-23.362 60.397-37.616 95.753-41.066 70.182-6.848 132.234-50.737 156.028-118.342 6.755-19.192 9.906-38.826 9.806-58.232l.006-.002v-66.59z" fill="url(#SVGID_00000132080727799866894720000010674399394498102413_)"/><path d="m14.602 319.882v70.094h.028c.219 17.016 3.991 34.105 11.737 50.265 30.118 62.833 108.653 87.827 175.413 55.826 11.894-5.701 22.611-12.826 32.023-21.043 26.762-23.362 60.397-37.616 95.753-41.066 70.182-6.848 132.234-50.737 156.028-118.342 6.755-19.192 9.906-38.826 9.806-58.232l.006-.002v-66.59z" fill="url(#SVGID_00000011712370271943283360000016811952017429899923_)"/><path d="m363.441 11.676c-100.872-35.502-209.731 12.68-243.145 107.617-.359 1.019-.735 2.094-1.128 3.219-14.055 40.305-37.231 76.652-66.922 107.32-36.915 38.129-48.954 94.512-25.88 142.651 30.118 62.833 108.653 87.827 175.413 55.826 11.894-5.701 22.611-12.826 32.023-21.043 26.762-23.362 60.397-37.616 95.753-41.066 70.182-6.848 132.234-50.737 156.028-118.342 33.414-94.938-21.271-200.68-122.142-236.182z" fill="url(#SVGID_00000129884972811561109470000013780822814713618584_)"/><path d="m363.441 11.676c-100.872-35.502-209.731 12.68-243.145 107.617-.359 1.019-.735 2.094-1.128 3.219-14.055 40.305-37.231 76.652-66.922 107.32-36.915 38.129-48.954 94.512-25.88 142.651 30.118 62.833 108.653 87.827 175.413 55.826 11.894-5.701 22.611-12.826 32.023-21.043 26.762-23.362 60.397-37.616 95.753-41.066 70.182-6.848 132.234-50.737 156.028-118.342 33.414-94.938-21.271-200.68-122.142-236.182z" fill="url(#SVGID_00000085236068549366827070000015095752798356329641_)"/><path d="m485.587 247.86c-23.797 67.606-85.854 111.497-156.03 118.343-35.363 3.446-68.996 17.699-95.76 41.064-9.404 8.213-20.129 15.339-32.021 21.04-66.753 32.01-145.294 7.009-175.411-55.818-16.063-33.528-15.105-71.041-.572-103.611l268.87-268.87c22.687-.117 45.935 3.633 68.774 11.671 100.877 35.501 155.562 141.238 122.15 236.181z" fill="url(#SVGID_00000142861573795585993280000011814311305345118653_)"/><path d="m363.441 11.676c-32.091-11.295-64.988-14.107-96.01-9.651v382.447c19.257-9.915 40.361-16.147 62.125-18.271 70.182-6.848 132.234-50.737 156.028-118.342 33.413-94.939-21.272-200.681-122.143-236.183z" fill="url(#SVGID_00000150070144785436140150000007282335638887208884_)"/><path d="m141.087 413.036c-38.795-.001-72.662-20.377-88.384-53.177-17.239-35.963-9.182-79.027 20.526-109.711 33.562-34.666 58.297-74.373 73.517-118.019l1.103-3.147c10.454-29.703 30.119-54.846 56.866-72.706 26.523-17.71 57.972-27.071 90.946-27.071 19.652 0 39.194 3.371 58.084 10.02 85.519 30.099 132.303 119.342 104.289 198.937-9.56 27.163-27.023 50.753-50.501 68.218-23.145 17.218-51.09 27.852-80.814 30.752-41.973 4.096-80.744 20.74-112.123 48.132-7.609 6.643-16.168 12.264-25.441 16.708-15.314 7.341-31.486 11.063-48.065 11.063-.001.001-.002.001-.003.001z" fill="url(#SVGID_00000111171124435804685620000005700633897766006421_)"/><g><path d="m226.993 193.783-43.115 8.269c-16.765 3.215-29.13 17.521-29.885 34.575l-1.282 28.982c-.772 17.44 10.795 33.029 27.709 37.348l64.953 16.584c10.079 2.573 20.777.769 29.454-4.969l1.709-1.13c17.819-11.783 21.923-36.197 8.936-53.159l-7.069-9.233c-4.606-6.016-7.246-13.305-7.562-20.875l-.072-1.72c-.938-22.505-21.657-38.914-43.776-34.672z" fill="url(#SVGID_00000129201193921578332520000005176317535490130831_)"/><path d="m352.407 136.041c2.566 8.187-1.772 16.942-9.839 19.86l-10.995 3.977c-27.972 10.118-45.259 38.203-41.692 67.734 4.333 35.864 37.518 61.003 73.215 55.464l13.994-2.171c33.644-5.221 60.265-31.223 66.274-64.736 6.088-33.953-10.342-67.973-40.72-84.314l-27.357-14.716c-12.653-6.807-27.177 5.193-22.88 18.902z" fill="url(#SVGID_00000019649123063086398530000010349636965098823069_)"/><path d="m300.952 160.803 21.272-16.098c6.897-5.219 11.906-12.543 14.27-20.863l4.954-17.438c6.006-21.142-6.26-43.151-27.4-49.164l-29.526-8.397c-10.877-3.093-22.556-1.414-32.121 4.618l-26.074 16.443c-22.581 14.24-25.019 46.235-4.856 63.732l29.374 25.49c14.208 12.33 35.107 13.029 50.107 1.677z" fill="url(#SVGID_00000052101578373719752440000003145395769962607009_)"/><path d="m207.535 138.854 8.063 8.351c9.316 9.649 5.537 25.7-7.105 30.179l-18.287 6.479c-16.846 5.969-31.477-13.123-21.334-27.837l10.223-14.831c6.612-9.589 20.35-10.72 28.44-2.341z" fill="url(#SVGID_00000023964911304652464190000002421462509255893138_)"/></g><g><ellipse cx="165.35" cy="294.362" fill="url(#SVGID_00000146497230963918402280000009653435271233043082_)" rx="54.32" ry="45.559"/><path d="m111.03 294.362c0 25.162 24.32 45.559 54.32 45.559s54.32-20.397 54.32-45.559c0-7.738-2.308-15.022-6.366-21.405h-95.909c-4.058 6.383-6.365 13.667-6.365 21.405z" fill="url(#SVGID_00000145059012107619588580000016452096479301396904_)"/><path d="m219.67 294.362c0-20.883-16.758-38.471-39.606-43.853l-63.651 63.651c8.784 15.245 27.395 25.762 48.936 25.762 30.001-.001 54.321-20.398 54.321-45.56z" fill="url(#SVGID_00000127025896216098035060000006593555121962257562_)"/></g></g></svg>