<svg width="56" height="56" viewBox="0 0 56 56" fill="none" xmlns="http://www.w3.org/2000/svg">
<path d="M26.8333 50.75C13.65 50.75 2.91667 40.0167 2.91667 26.8334C2.91667 13.65 13.65 2.91669 26.8333 2.91669C40.0167 2.91669 50.75 13.65 50.75 26.8334C50.75 40.0167 40.0167 50.75 26.8333 50.75ZM26.8333 6.41669C15.5633 6.41669 6.41667 15.5867 6.41667 26.8334C6.41667 38.08 15.5633 47.25 26.8333 47.25C38.1033 47.25 47.25 38.08 47.25 26.8334C47.25 15.5867 38.1033 6.41669 26.8333 6.41669Z" fill="#F8B230"/>
<path d="M51.3331 53.0831C50.8898 53.0831 50.4464 52.9197 50.0964 52.5697L45.4298 47.9031C44.7531 47.2264 44.7531 46.1064 45.4298 45.4297C46.1064 44.7531 47.2264 44.7531 47.9031 45.4297L52.5698 50.0964C53.2464 50.7731 53.2464 51.8931 52.5698 52.5697C52.2198 52.9197 51.7764 53.0831 51.3331 53.0831Z" fill="#F8B230"/>
</svg>
