<svg width="56" height="56" viewBox="0 0 56 56" fill="none" xmlns="http://www.w3.org/2000/svg">
<path fill-rule="evenodd" clip-rule="evenodd" d="M28.0003 45.6406C27.956 45.6406 27.9118 45.6504 27.8714 45.668L16.5882 51.6318L16.5842 51.6338C15.9634 51.9627 15.2619 52.1112 14.5608 52.0625C13.8584 52.0137 13.1836 51.7685 12.6135 51.3555C12.0436 50.9421 11.601 50.3772 11.3362 49.7246C11.0718 49.0733 10.9955 48.357 11.1155 47.6641L13.3001 34.8799L13.302 34.8682C13.3052 34.8506 13.3037 34.8323 13.2981 34.8154C13.2925 34.7984 13.2829 34.7828 13.2698 34.7705L13.2493 34.751L4.08132 25.9053C3.56203 25.41 3.19681 24.7751 3.02956 24.0771C2.86166 23.3764 2.90089 22.642 3.14187 21.9629C3.38282 21.2839 3.81506 20.6891 4.38698 20.251C4.93982 19.8275 5.60011 19.5673 6.29226 19.5L18.8167 17.6445C18.8382 17.6413 18.8604 17.6391 18.8821 17.6367C18.8881 17.636 18.8938 17.6334 18.8987 17.6299C18.9038 17.6262 18.9079 17.6209 18.9104 17.6152C18.9206 17.5923 18.9315 17.5694 18.9426 17.5469L24.6301 6.06348C24.9295 5.42936 25.4022 4.89246 25.9934 4.51465C26.5925 4.13188 27.2893 3.92871 28.0003 3.92871V45.6406Z" fill="#FAAF30"/>
</svg>
