<svg width="56" height="56" viewBox="0 0 56 56" fill="none" xmlns="http://www.w3.org/2000/svg">
<path fill-rule="evenodd" clip-rule="evenodd" d="M28 3.92844C27.2891 3.92844 26.593 4.13182 25.9939 4.51459C25.4025 4.89246 24.9299 5.42959 24.6305 6.06393L18.9426 17.547C18.9315 17.5696 18.9207 17.5924 18.9105 17.6154C18.908 17.6211 18.904 17.6261 18.8989 17.6298C18.8939 17.6335 18.888 17.6358 18.8817 17.6365C18.8599 17.6389 18.8381 17.6417 18.8164 17.645L6.29254 19.5003C5.60033 19.5677 4.94024 19.8274 4.38736 20.2509C3.8153 20.6891 3.38256 21.2838 3.14158 21.9629C2.9006 22.642 2.86172 23.3764 3.02964 24.0772C3.19691 24.7753 3.56224 25.4101 4.08162 25.9054L13.2491 34.7506L13.27 34.7704C13.2831 34.7827 13.293 34.798 13.2986 34.815C13.3043 34.832 13.3056 34.8502 13.3025 34.8678L13.3004 34.8795L11.1159 47.6642C10.9959 48.3571 11.0719 49.073 11.3363 49.7243C11.6011 50.3771 12.0438 50.9421 12.6139 51.3556C13.1841 51.7687 13.8588 52.0137 14.5613 52.0624C15.2624 52.1112 15.9631 51.9625 16.584 51.6336L16.5878 51.6314L27.8717 45.6679C27.9121 45.6504 27.9558 45.641 28.0001 45.641C28.0443 45.641 28.0881 45.6504 28.1285 45.6679L39.4122 51.6314C40.0335 51.9614 40.7371 52.1115 41.4386 52.0624C42.1412 52.0137 42.8159 51.7687 43.3862 51.3556C43.9563 50.9421 44.3991 50.3771 44.6639 49.7243C44.9283 49.073 45.0046 48.3607 44.8849 47.6682L44.8842 47.6642L42.6998 34.8795L42.6976 34.8678C42.6944 34.8502 42.6958 34.832 42.7016 34.815C42.707 34.798 42.717 34.7827 42.7299 34.7704L42.751 34.7506L51.9186 25.9053C52.4378 25.41 52.8032 24.7752 52.9705 24.0772C53.1382 23.3764 53.0995 22.642 52.8584 21.9629C52.6176 21.2838 52.1848 20.6891 51.6126 20.2509C51.0598 19.8274 50.3999 19.5677 49.7077 19.5003L37.1837 17.645C37.162 17.6417 37.1402 17.6389 37.1184 17.6365C37.1121 17.6358 37.1062 17.6335 37.1011 17.6298C37.0961 17.6261 37.0921 17.6211 37.0896 17.6154C37.0793 17.5924 37.0686 17.5696 37.0575 17.547L31.3696 6.06388C31.0701 5.42956 30.5976 4.89245 30.0062 4.51459C29.4071 4.13182 28.711 3.92844 28 3.92844Z" fill="#5D8D2B"/>
</svg>
